<?xml version="1.0" encoding="UTF-8" standalone="no"?>
<svg
   width="960pt"
   height="960pt"
   viewBox="0 0 960 960"
   version="1.1"
   id="svg61"
   sodipodi:docname="IMG_0015.svg"
   inkscape:version="1.4 (e7c3feb100, 2024-10-09)"
   xmlns:inkscape="http://www.inkscape.org/namespaces/inkscape"
   xmlns:sodipodi="http://sodipodi.sourceforge.net/DTD/sodipodi-0.dtd"
   xmlns="http://www.w3.org/2000/svg"
   xmlns:svg="http://www.w3.org/2000/svg">
  <defs
     id="defs61" />
  <sodipodi:namedview
     id="namedview61"
     pagecolor="#ffffff"
     bordercolor="#000000"
     borderopacity="0.25"
     inkscape:showpageshadow="2"
     inkscape:pageopacity="0.0"
     inkscape:pagecheckerboard="0"
     inkscape:deskcolor="#d1d1d1"
     inkscape:document-units="pt"
     inkscape:zoom="0.2032932"
     inkscape:cx="676.36301"
     inkscape:cy="-127.8941"
     inkscape:window-width="1920"
     inkscape:window-height="1175"
     inkscape:window-x="0"
     inkscape:window-y="0"
     inkscape:window-maximized="0"
     inkscape:current-layer="svg61" />
  <g
     id="#4a3347ff">
    <path
       fill="#4a3347"
       opacity="1.00"
       d=" M 0.00 0.00 L 0.25 0.00 C 0.19 0.06 0.06 0.19 0.00 0.25 L 0.00 0.00 Z"
       id="path1" />
    <path
       fill="#4a3347"
       opacity="1.00"
       d=" M 299.59 137.63 C 301.42 135.82 304.36 134.89 306.68 136.36 C 311.60 138.81 313.11 144.49 314.41 149.38 C 315.05 151.70 314.71 154.97 312.30 156.13 C 309.61 157.45 306.84 158.61 304.40 160.37 C 300.45 163.14 295.65 164.69 292.33 168.33 C 287.74 172.60 285.00 178.33 281.08 183.14 C 276.10 188.81 273.16 195.87 268.86 202.03 C 265.24 209.39 260.88 216.63 259.56 224.85 C 258.56 229.44 255.48 233.17 252.83 236.92 C 252.07 238.21 250.65 238.64 249.27 238.93 C 248.74 227.19 256.40 217.49 258.53 206.32 C 259.30 202.56 261.83 199.53 263.04 195.94 C 265.89 186.00 271.66 177.28 276.28 168.12 C 278.48 164.01 280.05 159.52 282.83 155.74 C 287.82 149.18 293.62 143.28 299.59 137.63 Z"
       id="path2" />
    <path
       fill="#4a3347"
       opacity="1.00"
       d=" M 638.29 149.12 C 638.13 147.29 639.75 146.26 640.95 145.21 C 646.62 148.34 650.66 153.71 656.47 156.61 C 662.81 159.93 667.99 164.98 672.89 170.10 C 683.05 178.61 691.39 189.07 699.31 199.64 C 706.74 212.58 716.08 224.58 721.20 238.75 C 723.73 243.89 724.59 249.65 727.27 254.72 C 728.55 257.05 727.94 259.81 728.52 262.32 C 729.21 265.47 729.91 268.64 729.79 271.90 C 726.71 270.24 723.95 267.93 722.18 264.87 C 716.84 255.98 709.52 248.31 705.28 238.76 C 703.37 235.44 699.40 233.96 697.55 230.54 C 695.22 226.61 691.24 224.06 688.88 220.17 C 685.86 215.58 683.06 210.76 678.97 207.02 C 675.95 204.32 674.04 200.66 671.11 197.88 C 665.47 192.81 661.39 185.97 654.53 182.33 C 652.28 181.78 649.22 182.67 648.11 179.97 C 645.89 175.36 645.94 169.99 643.96 165.26 C 642.53 159.71 638.26 155.01 638.29 149.12 Z"
       id="path3" />
    <path
       fill="#4a3347"
       opacity="1.00"
       d=" M 361.40 158.28 C 362.73 158.34 364.10 158.19 365.41 158.57 C 368.77 161.51 370.35 165.81 372.14 169.78 C 373.78 173.56 377.08 176.38 378.48 180.29 C 381.09 187.44 384.60 194.30 385.91 201.87 C 387.87 209.16 390.52 216.34 390.68 224.00 C 393.60 241.12 394.80 258.66 392.77 275.96 C 392.61 280.63 392.59 285.33 391.58 289.91 C 389.74 298.46 391.94 307.79 387.78 315.82 C 383.46 311.40 385.98 304.50 385.38 298.99 C 383.90 286.70 384.73 274.05 381.07 262.09 C 379.53 257.15 381.21 251.78 379.24 246.93 C 375.92 238.48 375.75 229.20 372.43 220.76 C 370.85 216.07 367.79 212.09 364.67 208.33 C 361.80 205.20 358.27 202.20 357.39 197.83 C 357.45 194.79 357.89 191.77 357.76 188.72 C 357.45 183.01 360.14 177.70 360.33 172.04 C 360.60 167.45 359.60 162.67 361.40 158.28 Z"
       id="path4" />
    <path
       fill="#4a3347"
       opacity="1.00"
       d=" M 620.89 177.97 C 624.53 181.59 626.68 186.31 629.32 190.64 C 632.36 195.54 633.93 201.16 636.81 206.15 C 639.25 210.45 641.66 214.83 643.12 219.58 C 644.37 223.69 645.33 227.91 647.07 231.85 C 649.84 237.71 649.67 244.45 652.57 250.27 C 655.95 257.35 655.49 265.55 658.90 272.61 C 659.83 265.44 659.24 258.20 659.36 251.00 C 659.19 241.95 660.02 232.83 658.53 223.85 C 657.72 218.94 656.81 214.05 656.07 209.13 C 655.06 202.10 652.86 195.17 653.37 188.00 C 660.22 189.40 664.12 195.64 668.75 200.25 C 671.67 203.08 674.33 206.21 676.27 209.81 C 671.01 205.02 666.39 199.59 661.61 194.33 C 660.11 192.29 657.52 192.22 655.24 192.03 C 655.21 202.38 658.05 212.49 660.53 222.47 C 663.07 230.98 661.71 239.90 662.50 248.61 C 662.87 255.41 661.72 262.20 662.19 269.01 C 662.52 274.20 660.49 279.29 661.32 284.46 C 667.08 286.09 673.16 285.66 678.93 287.16 C 681.84 288.04 685.19 289.48 686.02 292.73 C 682.62 296.17 677.50 296.22 673.00 295.91 C 668.17 295.50 663.33 294.75 658.48 295.36 C 658.27 303.42 656.64 311.41 654.12 319.05 C 651.63 324.48 649.43 330.02 647.55 335.69 C 647.18 337.46 645.61 338.28 644.12 338.98 C 640.24 334.76 641.77 328.55 642.53 323.46 C 643.98 317.65 641.88 311.83 641.87 305.98 C 641.82 301.26 641.30 295.71 637.23 292.62 C 635.40 291.21 633.30 292.84 631.49 293.42 C 628.46 294.79 625.11 295.09 621.95 296.06 C 620.33 296.40 620.14 298.29 619.64 299.57 C 617.32 308.48 616.04 317.73 612.32 326.22 C 609.13 335.72 605.60 345.13 601.29 354.19 C 599.46 357.75 598.84 362.33 601.20 365.81 C 605.21 371.67 610.58 376.47 614.61 382.33 C 615.81 383.80 615.73 385.73 615.77 387.52 C 603.47 392.62 590.08 394.26 577.39 398.19 C 573.44 399.45 567.50 399.98 566.79 405.08 C 566.43 412.74 571.99 419.28 571.80 426.99 C 562.45 423.59 556.00 415.30 547.44 410.51 C 544.56 409.03 540.25 409.66 538.50 412.55 C 538.25 414.71 538.63 416.87 538.68 419.04 C 538.92 422.94 537.14 426.55 536.45 430.32 C 534.83 438.35 534.36 446.66 531.46 454.40 C 529.59 459.42 529.23 465.28 531.88 470.10 C 534.29 474.65 537.00 479.05 539.41 483.63 C 542.72 489.50 546.81 494.98 549.05 501.40 C 545.45 503.29 542.48 500.13 539.83 498.09 C 541.97 498.94 544.17 499.59 546.39 500.22 C 545.43 497.08 543.86 494.18 541.89 491.57 C 542.01 493.43 542.17 495.30 542.33 497.17 C 538.44 494.32 534.47 491.49 529.88 489.89 C 525.36 487.89 521.12 485.20 516.31 483.91 C 515.42 488.80 515.40 493.82 516.28 498.71 C 517.64 506.17 516.90 513.77 516.32 521.27 C 511.47 518.01 507.47 513.73 503.34 509.64 C 501.82 508.34 499.89 506.12 497.76 507.61 C 496.23 510.78 495.27 514.22 493.35 517.20 C 489.78 509.72 488.82 501.33 485.12 493.91 C 482.93 489.32 481.88 484.23 479.16 479.89 C 472.63 469.61 464.78 460.28 457.44 450.59 C 454.00 446.39 449.82 442.79 446.97 438.13 C 444.92 434.93 443.20 431.19 439.70 429.31 C 435.74 427.16 431.48 425.62 427.50 423.53 C 419.45 419.38 410.61 417.20 402.24 413.85 C 396.56 412.24 390.69 411.44 385.03 409.74 C 385.11 409.28 385.27 408.35 385.35 407.89 C 386.08 403.71 386.11 399.18 388.54 395.54 C 392.93 389.02 396.50 381.98 400.09 375.00 C 403.25 367.67 406.51 360.16 412.01 354.24 C 416.79 358.52 420.23 364.01 423.46 369.49 C 427.83 376.93 433.79 383.28 438.18 390.71 C 440.98 396.03 445.36 400.21 448.79 405.08 C 452.87 411.58 457.92 417.39 463.05 423.06 C 463.94 424.31 465.51 424.18 466.87 424.36 C 469.96 419.90 469.13 414.32 469.66 409.22 C 470.07 405.06 470.56 400.92 470.75 396.75 C 470.97 391.04 473.21 385.70 474.27 380.14 C 475.06 376.10 476.02 372.10 477.23 368.17 C 479.47 361.20 479.64 353.56 483.44 347.14 C 487.95 347.24 487.64 352.43 488.21 355.67 C 488.81 363.17 492.18 369.99 495.26 376.72 C 496.06 378.12 496.99 380.19 498.89 380.16 C 502.15 378.32 502.11 374.25 502.42 371.01 C 502.84 362.06 506.25 353.68 508.18 345.03 C 509.61 338.80 511.03 332.26 515.27 327.25 C 519.61 329.48 520.81 334.60 524.02 337.96 C 528.23 333.19 529.08 326.64 531.01 320.80 C 532.43 316.10 533.54 310.81 537.51 307.52 C 540.60 305.06 544.65 304.48 548.28 303.18 C 550.11 298.79 550.95 294.07 552.72 289.66 C 554.23 285.76 556.13 281.97 556.90 277.83 C 558.61 266.56 563.03 255.99 566.34 245.15 C 568.73 235.94 572.03 226.99 575.37 218.09 C 576.40 218.45 577.70 218.52 578.36 219.55 C 580.96 223.05 582.70 227.12 585.31 230.63 C 589.23 236.05 593.71 241.06 597.07 246.88 C 602.47 254.83 606.35 263.65 610.62 272.23 C 613.42 277.79 614.78 283.93 617.42 289.56 C 618.60 291.49 616.81 293.38 616.21 295.17 C 614.12 299.30 613.86 304.02 614.01 308.56 C 616.47 304.89 616.80 300.36 618.65 296.42 C 619.57 293.96 621.50 291.46 620.45 288.73 C 618.99 284.30 618.93 279.56 620.29 275.10 C 623.43 264.31 628.47 254.16 631.67 243.40 C 633.25 238.81 630.67 234.38 628.97 230.25 C 627.08 225.60 623.15 221.92 622.27 216.86 C 620.64 209.01 621.47 200.95 621.41 193.00 C 621.43 187.98 620.49 182.99 620.89 177.97 M 625.23 266.35 C 622.68 273.05 620.88 280.46 622.50 287.60 C 626.46 287.79 630.42 288.06 634.37 288.50 C 635.55 288.73 636.70 288.35 637.76 287.83 C 639.15 279.90 634.63 272.76 634.07 265.01 C 633.85 261.22 631.90 257.80 628.92 255.51 C 626.99 258.87 626.51 262.75 625.23 266.35 M 577.88 284.08 C 574.79 295.34 571.18 306.47 568.67 317.89 C 565.53 328.47 562.81 339.18 559.70 349.77 C 558.62 353.90 556.50 357.72 555.66 361.91 C 556.42 363.99 558.73 365.02 560.78 364.08 C 570.55 360.65 580.88 359.01 590.22 354.35 C 593.54 353.37 595.01 349.51 593.81 346.40 C 592.71 333.94 591.37 321.47 590.16 309.01 C 590.11 306.19 590.49 303.30 589.47 300.60 C 587.40 295.20 588.98 289.28 587.27 283.78 C 586.10 279.86 587.34 273.62 582.03 272.63 C 577.95 274.95 578.97 280.20 577.88 284.08 Z"
       id="path5" />
    <path
       fill="#4a3347"
       opacity="1.00"
       d=" M 728.86 201.42 C 734.12 204.60 738.67 208.67 743.06 212.94 C 747.92 216.14 750.51 221.45 754.34 225.65 C 756.14 227.74 756.88 230.45 758.03 232.90 C 758.95 235.15 761.21 236.38 762.68 238.23 C 763.80 239.85 764.44 241.76 765.59 243.38 C 767.30 245.32 769.68 246.61 771.17 248.76 C 772.34 250.79 772.86 253.10 773.65 255.28 C 774.92 259.22 777.32 262.82 777.62 267.04 C 778.44 275.09 779.58 283.09 780.61 291.11 C 780.66 295.27 779.39 299.58 777.04 303.03 C 774.41 300.65 773.61 297.11 773.43 293.71 C 772.99 287.53 770.63 281.73 767.89 276.26 C 764.81 270.29 765.07 262.84 760.42 257.65 C 758.44 255.22 754.87 255.34 752.58 253.42 C 750.46 247.75 749.90 241.51 746.92 236.14 C 744.66 232.24 742.71 228.19 741.21 223.94 C 739.57 219.30 735.22 216.31 733.54 211.71 C 732.23 208.17 730.80 204.67 728.86 201.42 Z"
       id="path6" />
    <path
       fill="#4a3347"
       opacity="1.00"
       d=" M 212.75 209.59 C 213.94 206.87 215.47 202.22 219.32 203.61 C 220.19 208.82 218.31 213.95 217.96 219.13 C 217.28 223.83 218.20 228.65 217.15 233.30 C 216.03 237.41 211.72 239.12 209.00 242.00 C 203.20 248.19 197.96 255.15 195.08 263.21 C 193.63 267.46 191.98 271.71 189.33 275.37 C 187.42 276.24 187.40 273.22 187.27 272.03 C 186.32 263.76 190.38 256.25 192.77 248.60 C 195.00 240.91 200.06 234.59 203.57 227.51 C 206.48 221.44 210.76 216.08 212.75 209.59 Z"
       id="path7" />
    <path
       fill="#4a3347"
       opacity="1.00"
       d=" M 706.22 303.06 C 706.10 299.67 709.70 297.36 712.78 297.41 C 716.15 298.20 717.92 301.56 719.72 304.22 C 725.13 312.33 727.00 322.37 733.08 330.07 C 736.06 331.81 739.80 330.48 743.10 330.73 C 744.30 335.25 745.02 339.91 746.46 344.37 C 748.31 350.22 751.48 355.53 753.51 361.30 C 754.36 363.95 755.97 366.22 757.79 368.29 C 758.69 373.60 759.75 378.88 760.44 384.22 C 757.53 383.22 754.84 381.70 751.95 380.67 C 749.61 380.46 746.82 382.29 747.23 384.89 C 747.92 396.69 747.94 408.53 747.24 420.32 C 746.26 421.63 745.26 422.92 744.22 424.18 C 740.60 423.82 736.70 424.21 733.37 422.54 C 730.23 420.35 727.81 417.32 725.06 414.70 C 724.43 413.79 723.80 412.89 723.18 411.99 C 720.66 404.37 714.62 398.44 712.59 390.62 C 711.80 385.48 713.84 380.34 713.01 375.18 C 712.28 370.17 711.82 365.06 713.02 360.08 C 713.96 362.13 714.88 364.19 715.62 366.33 C 717.03 375.02 721.64 382.56 725.34 390.39 C 726.33 393.75 729.01 396.95 732.89 396.37 C 736.32 395.96 736.84 391.91 736.14 389.18 C 734.49 381.48 730.34 374.45 729.68 366.49 C 728.32 357.62 730.64 348.50 728.43 339.75 C 725.78 330.53 721.01 322.16 715.61 314.29 C 713.84 311.47 710.09 311.87 707.41 310.51 C 705.80 308.45 706.15 305.51 706.22 303.06 Z"
       id="path8" />
    <path
       fill="#4a3347"
       opacity="1.00"
       d=" M 653.30 373.40 C 655.24 372.87 657.25 372.59 659.26 372.84 C 668.66 373.87 678.18 374.36 687.33 376.94 C 689.74 377.83 691.85 379.56 693.36 381.63 C 694.33 383.17 693.03 384.79 692.42 386.18 C 684.90 385.59 677.65 383.16 670.35 381.36 C 664.71 379.52 658.39 379.17 653.48 375.58 C 653.43 375.03 653.35 373.94 653.30 373.40 Z"
       id="path9" />
    <path
       fill="#4a3347"
       opacity="1.00"
       d=" M 223.25 385.94 C 227.13 391.41 226.66 398.43 228.06 404.71 C 228.87 409.83 232.23 413.98 233.88 418.81 C 235.75 424.49 238.84 429.67 240.64 435.39 C 243.69 444.60 249.02 452.78 253.81 461.15 C 256.65 466.01 258.70 471.33 262.08 475.88 C 265.65 480.70 268.31 486.17 272.34 490.65 C 277.19 496.16 280.77 502.79 286.54 507.46 C 290.37 510.55 293.41 514.45 297.00 517.80 C 298.18 516.70 300.05 515.86 299.84 513.96 C 300.32 506.30 301.85 498.70 301.32 491.00 C 300.63 480.33 304.05 470.08 305.80 459.68 C 306.98 452.77 308.55 445.88 311.71 439.57 C 314.56 433.90 315.58 427.40 319.11 422.08 C 320.13 420.08 322.44 420.35 324.33 420.25 C 325.85 426.72 326.96 433.31 329.38 439.53 C 331.16 444.06 332.06 448.85 333.47 453.49 C 334.69 457.55 339.36 458.49 342.59 460.42 C 343.03 460.73 343.91 461.33 344.35 461.64 C 344.83 468.60 341.56 475.24 342.69 482.19 C 343.68 489.75 343.26 497.62 346.17 504.82 C 348.91 511.57 352.01 518.51 357.42 523.57 C 363.40 528.86 370.13 533.28 377.40 536.60 C 387.93 542.50 398.68 548.26 407.86 556.20 C 411.93 560.06 416.65 563.34 419.77 568.10 C 421.58 571.02 423.89 573.63 426.81 575.47 C 423.36 577.53 421.13 581.16 419.67 584.80 C 417.04 594.92 415.80 605.33 413.27 615.48 C 411.46 624.89 409.33 634.37 409.51 644.02 C 409.50 650.82 412.37 657.13 414.43 663.48 C 416.23 668.92 420.37 673.59 420.56 679.52 C 419.33 679.13 418.07 678.79 417.02 678.05 C 411.98 674.50 407.27 670.41 403.54 665.48 C 400.65 661.97 398.38 657.99 395.51 654.47 C 393.12 650.93 387.81 653.01 386.02 656.10 C 383.75 660.48 383.64 665.58 382.05 670.21 C 377.59 683.82 373.62 697.60 368.95 711.14 C 368.43 712.90 367.38 714.47 365.58 715.10 C 364.96 705.87 364.56 696.55 362.63 687.49 C 362.10 683.69 356.49 681.88 354.52 685.56 C 347.69 696.00 340.87 706.48 333.52 716.57 C 331.13 719.89 328.23 723.00 326.79 726.90 C 325.93 729.90 325.70 733.04 325.17 736.11 C 324.26 736.62 323.35 737.15 322.43 737.65 C 318.92 738.84 315.22 740.85 311.43 739.67 C 308.76 729.80 314.28 719.86 312.00 709.98 C 306.32 713.40 304.69 720.30 299.92 724.59 C 298.82 723.65 297.99 722.42 297.97 720.95 C 297.20 712.30 297.89 703.58 297.15 694.93 C 296.60 688.92 296.92 682.86 296.22 676.86 C 295.50 670.80 296.37 664.54 294.43 658.66 C 291.44 646.80 279.76 639.50 277.18 627.46 C 275.58 627.32 273.98 627.21 272.39 627.12 C 267.81 638.17 268.50 650.80 263.01 661.60 C 257.94 655.08 255.24 647.16 252.45 639.49 C 251.76 637.58 250.73 635.84 249.65 634.15 C 248.22 634.15 246.80 634.16 245.37 634.17 C 242.01 638.85 241.23 645.45 236.04 648.69 C 233.01 645.13 233.79 640.29 233.76 636.00 C 234.10 627.88 232.66 619.84 230.93 611.95 C 229.85 606.56 225.42 602.96 221.80 599.21 C 218.18 595.46 213.70 592.57 210.63 588.31 C 206.38 582.62 201.97 577.06 197.37 571.65 C 189.91 562.65 185.13 551.72 177.37 542.96 C 175.65 549.89 176.81 557.04 176.37 564.08 C 175.78 574.03 176.62 584.01 176.05 593.96 C 176.18 596.20 174.32 597.75 172.17 597.72 C 168.58 595.41 167.21 591.10 165.44 587.45 C 163.75 583.36 161.31 579.64 159.42 575.66 C 156.36 568.45 155.38 560.57 152.53 553.29 C 148.66 545.40 145.63 536.98 144.69 528.20 C 144.32 524.72 143.77 521.26 142.87 517.88 C 138.70 522.54 136.51 528.61 132.06 533.05 C 126.04 539.11 119.71 545.34 111.58 548.46 C 111.48 548.50 111.28 548.59 111.18 548.63 L 110.63 548.84 C 113.54 543.77 115.16 538.15 116.78 532.58 C 119.81 523.02 121.23 512.98 121.36 502.96 C 121.60 496.68 121.51 489.77 125.57 484.55 C 132.09 475.80 134.33 464.87 139.39 455.34 C 141.98 450.69 141.77 444.50 146.13 440.94 C 149.84 442.10 151.10 446.07 152.86 449.13 C 155.02 453.00 156.63 457.27 159.56 460.66 C 160.57 462.00 162.37 460.96 163.70 460.92 C 165.23 455.54 165.64 449.95 166.81 444.50 C 167.32 442.45 167.85 440.15 169.60 438.79 C 171.15 438.10 172.28 439.71 173.23 440.67 C 178.80 447.62 181.64 456.21 185.98 463.90 C 190.15 471.24 193.22 479.15 197.49 486.45 C 200.57 491.75 203.58 497.09 206.27 502.60 C 208.11 506.23 209.61 510.24 212.96 512.80 C 213.45 512.35 214.45 511.46 214.94 511.01 C 214.66 506.67 214.33 502.33 214.29 497.98 C 214.35 489.93 212.03 482.07 212.28 474.01 C 212.50 464.35 212.04 454.68 212.49 445.03 C 213.73 434.41 212.92 423.59 215.32 413.12 C 216.13 409.55 217.69 406.22 218.86 402.77 C 220.78 397.28 220.69 391.24 223.25 385.94 Z"
       id="path10" />
    <path
       fill="#4a3347"
       opacity="1.00"
       d=" M 595.10 960.00 C 598.86 949.34 601.10 938.12 605.85 927.83 C 606.41 928.97 606.97 930.13 607.58 931.29 C 608.56 932.92 609.25 935.30 611.48 935.55 C 614.63 936.69 618.78 936.03 621.22 938.66 C 621.70 942.31 621.65 946.09 623.15 949.56 C 623.97 953.09 624.81 956.65 626.25 960.00 L 595.10 960.00 Z"
       id="path11" />
  </g>
  <g
     id="#ffffffff">
    <path
       fill="#ffffff"
       opacity="1.00"
       d=" M 340.47 818.57 C 349.48 818.18 358.63 817.28 367.57 818.79 C 373.44 820.88 377.97 825.70 384.15 827.20 C 395.15 834.72 405.49 843.19 415.67 851.79 C 417.20 854.62 418.88 857.39 420.86 859.94 C 416.93 858.57 412.93 857.36 409.04 855.88 L 408.39 855.51 C 404.52 852.43 400.15 850.10 395.58 848.27 C 387.93 845.17 380.84 840.90 373.30 837.56 C 366.92 834.71 360.94 831.05 354.46 828.44 C 349.25 826.30 343.79 824.44 339.44 820.74 C 339.78 820.01 340.12 819.28 340.47 818.57 Z"
       id="path12" />
  </g>
  <g
     id="#7a5a6bff">
    <path
       fill="#7a5a6b"
       opacity="1.00"
       d=" M 421.56 8.48 C 429.91 3.76 439.81 4.91 448.91 6.05 C 452.02 6.47 454.79 8.02 457.65 9.20 C 461.91 10.99 466.60 11.38 470.89 13.09 C 473.94 14.14 477.00 16.03 480.36 15.28 C 484.88 14.54 489.39 13.60 494.00 13.61 C 497.54 13.67 501.49 13.19 504.51 15.44 C 509.08 18.75 514.41 21.09 520.05 21.71 C 526.03 22.21 530.99 17.38 536.96 17.82 C 541.24 18.15 545.51 18.70 549.79 19.14 C 556.31 19.69 562.12 22.96 568.41 24.49 C 574.08 25.79 578.48 29.81 583.67 32.19 C 587.96 34.21 592.13 36.49 596.55 38.23 C 605.55 41.51 613.80 46.46 622.53 50.39 C 630.49 54.51 639.31 56.53 647.32 60.55 C 661.59 66.01 676.28 70.40 691.22 73.69 C 702.54 76.67 714.28 78.23 726.00 77.73 C 730.37 77.71 735.74 76.84 738.55 81.07 C 737.35 82.43 736.15 83.90 734.41 84.56 C 727.90 87.44 720.63 87.45 713.76 88.95 C 702.55 91.33 691.16 92.68 679.96 95.08 C 689.04 99.62 698.62 103.22 707.24 108.66 C 727.38 120.48 745.62 135.41 761.79 152.22 C 774.11 165.13 785.42 179.08 794.67 194.36 C 799.53 201.21 803.14 208.81 806.74 216.36 C 810.78 226.18 819.20 233.40 827.84 239.13 C 830.94 241.50 836.36 241.93 837.39 246.19 C 831.20 245.70 825.78 242.42 819.90 240.78 C 819.22 241.89 818.55 242.99 817.90 244.10 C 820.66 250.68 824.80 256.75 826.12 263.88 C 825.08 264.76 824.05 265.65 823.03 266.54 C 818.43 260.94 816.20 253.88 812.00 248.01 C 803.72 234.99 792.71 223.22 778.82 216.18 C 775.52 214.37 771.72 213.89 768.02 214.23 C 767.53 218.61 770.87 221.96 772.25 225.86 C 775.16 233.77 775.82 242.25 777.60 250.44 C 778.57 255.35 780.22 260.10 781.14 265.02 C 783.30 279.25 783.56 293.67 783.25 308.02 C 783.03 310.92 782.82 313.91 781.66 316.61 C 780.66 318.11 778.64 317.95 777.11 318.39 C 772.08 309.33 771.62 298.69 769.08 288.82 C 767.54 281.69 766.53 272.50 759.23 268.88 C 759.35 275.97 761.61 282.87 761.27 290.00 C 760.60 303.82 760.30 317.72 761.79 331.51 C 758.42 336.03 763.92 341.78 760.00 345.91 C 758.32 346.60 756.41 346.34 754.65 346.51 C 754.47 353.94 758.10 360.82 757.79 368.29 C 755.97 366.22 754.36 363.95 753.51 361.30 C 751.48 355.53 748.31 350.22 746.46 344.37 C 745.02 339.91 744.30 335.25 743.10 330.73 C 739.80 330.48 736.06 331.81 733.08 330.07 C 727.00 322.37 725.13 312.33 719.72 304.22 C 717.92 301.56 716.15 298.20 712.78 297.41 C 709.70 297.36 706.10 299.67 706.22 303.06 C 706.15 305.51 705.80 308.45 707.41 310.51 C 710.09 311.87 713.84 311.47 715.61 314.29 C 713.04 314.28 708.98 312.87 708.14 316.37 C 707.28 321.18 708.76 326.03 709.10 330.84 C 710.21 342.86 714.49 354.32 715.62 366.33 C 714.88 364.19 713.96 362.13 713.02 360.08 C 711.82 365.06 712.28 370.17 713.01 375.18 C 713.84 380.34 711.80 385.48 712.59 390.62 C 714.62 398.44 720.66 404.37 723.18 411.99 C 715.14 404.27 710.67 393.90 705.87 384.06 C 705.61 378.95 707.72 374.15 708.08 369.12 C 707.82 363.38 706.18 357.77 706.25 352.00 C 706.47 343.21 703.79 334.71 703.34 325.95 C 701.97 318.97 703.54 311.95 703.49 304.94 C 703.67 301.76 701.87 299.06 700.40 296.42 C 703.44 294.70 706.90 294.06 710.31 293.50 C 715.36 294.42 718.61 298.75 721.93 302.25 C 725.55 309.49 729.38 316.69 734.18 323.22 C 735.19 321.61 736.74 320.01 736.43 317.94 C 735.36 307.27 731.94 297.04 729.04 286.77 C 726.29 278.55 722.22 270.76 717.39 263.59 C 710.04 255.12 704.62 245.20 697.18 236.81 C 689.61 228.30 681.92 219.78 676.27 209.81 C 674.33 206.21 671.67 203.08 668.75 200.25 C 664.12 195.64 660.22 189.40 653.37 188.00 C 652.86 195.17 655.06 202.10 656.07 209.13 C 656.81 214.05 657.72 218.94 658.53 223.85 C 660.02 232.83 659.19 241.95 659.36 251.00 C 659.24 258.20 659.83 265.44 658.90 272.61 C 655.49 265.55 655.95 257.35 652.57 250.27 C 649.67 244.45 649.84 237.71 647.07 231.85 C 645.33 227.91 644.37 223.69 643.12 219.58 C 641.66 214.83 639.25 210.45 636.81 206.15 C 633.93 201.16 632.36 195.54 629.32 190.64 C 626.68 186.31 624.53 181.59 620.89 177.97 C 620.49 182.99 621.43 187.98 621.41 193.00 C 621.47 200.95 620.64 209.01 622.27 216.86 C 623.15 221.92 627.08 225.60 628.97 230.25 C 630.67 234.38 633.25 238.81 631.67 243.40 C 628.47 254.16 623.43 264.31 620.29 275.10 C 618.93 279.56 618.99 284.30 620.45 288.73 C 621.50 291.46 619.57 293.96 618.65 296.42 C 616.80 300.36 616.47 304.89 614.01 308.56 C 613.86 304.02 614.12 299.30 616.21 295.17 C 616.81 293.38 618.60 291.49 617.42 289.56 C 614.78 283.93 613.42 277.79 610.62 272.23 C 606.35 263.65 602.47 254.83 597.07 246.88 C 593.71 241.06 589.23 236.05 585.31 230.63 C 582.70 227.12 580.96 223.05 578.36 219.55 C 577.70 218.52 576.40 218.45 575.37 218.09 C 572.03 226.99 568.73 235.94 566.34 245.15 C 563.03 255.99 558.61 266.56 556.90 277.83 C 556.13 281.97 554.23 285.76 552.72 289.66 C 550.95 294.07 550.11 298.79 548.28 303.18 C 544.65 304.48 540.60 305.06 537.51 307.52 C 533.54 310.81 532.43 316.10 531.01 320.80 C 529.08 326.64 528.23 333.19 524.02 337.96 C 520.81 334.60 519.61 329.48 515.27 327.25 C 511.03 332.26 509.61 338.80 508.18 345.03 C 506.25 353.68 502.84 362.06 502.42 371.01 C 502.11 374.25 502.15 378.32 498.89 380.16 C 496.99 380.19 496.06 378.12 495.26 376.72 C 492.18 369.99 488.81 363.17 488.21 355.67 C 487.64 352.43 487.95 347.24 483.44 347.14 C 479.64 353.56 479.47 361.20 477.23 368.17 C 476.02 372.10 475.06 376.10 474.27 380.14 C 473.21 385.70 470.97 391.04 470.75 396.75 C 470.56 400.92 470.07 405.06 469.66 409.22 C 469.13 414.32 469.96 419.90 466.87 424.36 C 465.51 424.18 463.94 424.31 463.05 423.06 C 457.92 417.39 452.87 411.58 448.79 405.08 C 445.36 400.21 440.98 396.03 438.18 390.71 C 433.79 383.28 427.83 376.93 423.46 369.49 C 420.23 364.01 416.79 358.52 412.01 354.24 C 406.51 360.16 403.25 367.67 400.09 375.00 C 396.50 381.98 392.93 389.02 388.54 395.54 C 386.11 399.18 386.08 403.71 385.35 407.89 C 380.56 407.70 375.07 406.65 371.05 409.98 C 364.01 415.75 357.87 422.88 354.12 431.23 C 349.77 440.74 344.88 450.14 342.59 460.42 C 339.36 458.49 334.69 457.55 333.47 453.49 C 332.06 448.85 331.16 444.06 329.38 439.53 C 326.96 433.31 325.85 426.72 324.33 420.25 C 322.44 420.35 320.13 420.08 319.11 422.08 C 315.58 427.40 314.56 433.90 311.71 439.57 C 308.55 445.88 306.98 452.77 305.80 459.68 C 304.05 470.08 300.63 480.33 301.32 491.00 C 301.85 498.70 300.32 506.30 299.84 513.96 C 300.05 515.86 298.18 516.70 297.00 517.80 C 293.41 514.45 290.37 510.55 286.54 507.46 C 280.77 502.79 277.19 496.16 272.34 490.65 C 268.31 486.17 265.65 480.70 262.08 475.88 C 258.70 471.33 256.65 466.01 253.81 461.15 C 249.02 452.78 243.69 444.60 240.64 435.39 C 238.84 429.67 235.75 424.49 233.88 418.81 C 232.23 413.98 228.87 409.83 228.06 404.71 C 226.66 398.43 227.13 391.41 223.25 385.94 C 220.69 391.24 220.78 397.28 218.86 402.77 C 217.69 406.22 216.13 409.55 215.32 413.12 C 212.92 423.59 213.73 434.41 212.49 445.03 C 212.04 454.68 212.50 464.35 212.28 474.01 C 212.03 482.07 214.35 489.93 214.29 497.98 C 214.33 502.33 214.66 506.67 214.94 511.01 C 214.45 511.46 213.45 512.35 212.96 512.80 C 209.61 510.24 208.11 506.23 206.27 502.60 C 203.58 497.09 200.57 491.75 197.49 486.45 C 193.22 479.15 190.15 471.24 185.98 463.90 C 181.64 456.21 178.80 447.62 173.23 440.67 C 172.28 439.71 171.15 438.10 169.60 438.79 C 167.85 440.15 167.32 442.45 166.81 444.50 C 165.64 449.95 165.23 455.54 163.70 460.92 C 162.37 460.96 160.57 462.00 159.56 460.66 C 156.63 457.27 155.02 453.00 152.86 449.13 C 151.10 446.07 149.84 442.10 146.13 440.94 C 141.77 444.50 141.98 450.69 139.39 455.34 C 134.33 464.87 132.09 475.80 125.57 484.55 C 121.51 489.77 121.60 496.68 121.36 502.96 C 121.23 512.98 119.81 523.02 116.78 532.58 C 115.16 538.15 113.54 543.77 110.63 548.84 C 109.26 548.77 107.93 548.54 106.62 548.14 C 108.15 543.15 110.46 538.46 112.70 533.76 C 115.38 528.32 116.07 522.24 117.14 516.35 C 118.53 508.62 117.27 500.76 117.90 492.99 C 118.09 490.32 118.39 487.67 118.40 485.00 C 117.68 464.57 114.35 444.30 109.46 424.46 C 106.71 411.22 104.00 397.88 103.39 384.34 C 102.89 379.61 102.37 374.84 103.06 370.11 C 104.22 361.78 103.64 353.36 103.69 344.99 C 103.62 338.50 106.08 332.39 106.97 326.03 C 107.75 321.12 107.50 316.11 108.19 311.18 C 108.81 306.34 110.54 301.75 111.89 297.09 C 113.77 290.83 114.55 284.26 117.04 278.18 C 117.97 275.25 120.05 272.25 118.79 269.10 C 113.09 269.00 108.65 273.12 103.37 274.60 C 96.75 276.47 90.58 280.31 83.53 280.24 C 84.40 276.63 87.75 274.65 90.24 272.23 C 94.72 268.32 98.03 263.32 102.37 259.29 C 104.95 256.88 107.31 254.24 109.30 251.32 C 113.73 244.73 119.13 238.72 122.28 231.35 C 127.85 221.09 127.23 209.05 128.53 197.79 C 129.47 191.77 130.35 185.72 131.80 179.79 C 134.36 171.07 138.46 162.89 142.98 155.03 C 144.29 152.72 146.25 150.90 148.14 149.08 C 151.72 145.81 152.77 140.67 156.50 137.51 C 163.39 131.05 169.90 124.13 177.32 118.27 C 184.68 113.14 192.06 107.88 200.28 104.19 C 206.91 101.07 213.33 97.45 220.28 95.05 C 227.96 92.15 236.49 92.38 244.00 88.89 C 249.78 86.46 253.74 81.39 258.06 77.08 C 262.50 72.32 268.02 68.70 273.82 65.81 C 278.13 64.01 282.63 62.73 286.96 60.95 C 291.66 58.90 297.41 60.93 301.65 57.61 C 308.84 52.59 317.45 48.52 326.43 49.42 C 330.55 49.70 335.26 50.67 338.66 47.66 C 349.82 38.99 359.76 27.97 373.45 23.24 C 382.42 19.77 392.38 23.75 401.33 20.17 C 408.52 17.11 415.01 12.68 421.56 8.48 M 299.59 137.63 C 293.62 143.28 287.82 149.18 282.83 155.74 C 280.05 159.52 278.48 164.01 276.28 168.12 C 271.66 177.28 265.89 186.00 263.04 195.94 C 261.83 199.53 259.30 202.56 258.53 206.32 C 256.40 217.49 248.74 227.19 249.27 238.93 C 250.65 238.64 252.07 238.21 252.83 236.92 C 255.48 233.17 258.56 229.44 259.56 224.85 C 260.88 216.63 265.24 209.39 268.86 202.03 C 273.16 195.87 276.10 188.81 281.08 183.14 C 285.00 178.33 287.74 172.60 292.33 168.33 C 295.65 164.69 300.45 163.14 304.40 160.37 C 306.84 158.61 309.61 157.45 312.30 156.13 C 314.71 154.97 315.05 151.70 314.41 149.38 C 313.11 144.49 311.60 138.81 306.68 136.36 C 304.36 134.89 301.42 135.82 299.59 137.63 M 638.29 149.12 C 638.26 155.01 642.53 159.71 643.96 165.26 C 645.94 169.99 645.89 175.36 648.11 179.97 C 649.22 182.67 652.28 181.78 654.53 182.33 C 661.39 185.97 665.47 192.81 671.11 197.88 C 674.04 200.66 675.95 204.32 678.97 207.02 C 683.06 210.76 685.86 215.58 688.88 220.17 C 691.24 224.06 695.22 226.61 697.55 230.54 C 699.40 233.96 703.37 235.44 705.28 238.76 C 709.52 248.31 716.84 255.98 722.18 264.87 C 723.95 267.93 726.71 270.24 729.79 271.90 C 729.91 268.64 729.21 265.47 728.52 262.32 C 727.94 259.81 728.55 257.05 727.27 254.72 C 724.59 249.65 723.73 243.89 721.20 238.75 C 716.08 224.58 706.74 212.58 699.31 199.64 C 691.39 189.07 683.05 178.61 672.89 170.10 C 667.99 164.98 662.81 159.93 656.47 156.61 C 650.66 153.71 646.62 148.34 640.95 145.21 C 639.75 146.26 638.13 147.29 638.29 149.12 M 361.40 158.28 C 359.60 162.67 360.60 167.45 360.33 172.04 C 360.14 177.70 357.45 183.01 357.76 188.72 C 357.89 191.77 357.45 194.79 357.39 197.83 C 358.27 202.20 361.80 205.20 364.67 208.33 C 367.79 212.09 370.85 216.07 372.43 220.76 C 375.75 229.20 375.92 238.48 379.24 246.93 C 381.21 251.78 379.53 257.15 381.07 262.09 C 384.73 274.05 383.90 286.70 385.38 298.99 C 385.98 304.50 383.46 311.40 387.78 315.82 C 391.94 307.79 389.74 298.46 391.58 289.91 C 392.59 285.33 392.61 280.63 392.77 275.96 C 394.80 258.66 393.60 241.12 390.68 224.00 C 390.52 216.34 387.87 209.16 385.91 201.87 C 384.60 194.30 381.09 187.44 378.48 180.29 C 377.08 176.38 373.78 173.56 372.14 169.78 C 370.35 165.81 368.77 161.51 365.41 158.57 C 364.10 158.19 362.73 158.34 361.40 158.28 M 728.86 201.42 C 730.80 204.67 732.23 208.17 733.54 211.71 C 735.22 216.31 739.57 219.30 741.21 223.94 C 742.71 228.19 744.66 232.24 746.92 236.14 C 749.90 241.51 750.46 247.75 752.58 253.42 C 754.87 255.34 758.44 255.22 760.42 257.65 C 765.07 262.84 764.81 270.29 767.89 276.26 C 770.63 281.73 772.99 287.53 773.43 293.71 C 773.61 297.11 774.41 300.65 777.04 303.03 C 779.39 299.58 780.66 295.27 780.61 291.11 C 779.58 283.09 778.44 275.09 777.62 267.04 C 777.32 262.82 774.92 259.22 773.65 255.28 C 772.86 253.10 772.34 250.79 771.17 248.76 C 769.68 246.61 767.30 245.32 765.59 243.38 C 764.44 241.76 763.80 239.85 762.68 238.23 C 761.21 236.38 758.95 235.15 758.03 232.90 C 756.88 230.45 756.14 227.74 754.34 225.65 C 750.51 221.45 747.92 216.14 743.06 212.94 C 738.67 208.67 734.12 204.60 728.86 201.42 M 212.75 209.59 C 210.76 216.08 206.48 221.44 203.57 227.51 C 200.06 234.59 195.00 240.91 192.77 248.60 C 190.38 256.25 186.32 263.76 187.27 272.03 C 187.40 273.22 187.42 276.24 189.33 275.37 C 191.98 271.71 193.63 267.46 195.08 263.21 C 197.96 255.15 203.20 248.19 209.00 242.00 C 211.72 239.12 216.03 237.41 217.15 233.30 C 218.20 228.65 217.28 223.83 217.96 219.13 C 218.31 213.95 220.19 208.82 219.32 203.61 C 215.47 202.22 213.94 206.87 212.75 209.59 Z"
       id="path13" />
    <path
       fill="#7a5a6b"
       opacity="1.00"
       d=" M 645.62 371.71 C 649.77 369.14 654.75 369.65 659.32 370.58 C 668.48 372.45 678.01 372.25 687.02 374.91 C 691.96 376.54 697.54 380.90 696.02 386.76 C 693.56 387.86 690.86 388.65 688.17 387.99 C 677.38 385.74 667.04 381.70 656.20 379.69 C 653.96 378.82 651.90 377.52 649.99 376.09 C 648.45 374.71 647.02 373.21 645.62 371.71 M 653.30 373.40 C 653.35 373.94 653.43 375.03 653.48 375.58 C 658.39 379.17 664.71 379.52 670.35 381.36 C 677.65 383.16 684.90 385.59 692.42 386.18 C 693.03 384.79 694.33 383.17 693.36 381.63 C 691.85 379.56 689.74 377.83 687.33 376.94 C 678.18 374.36 668.66 373.87 659.26 372.84 C 657.25 372.59 655.24 372.87 653.30 373.40 Z"
       id="path14" />
    <path
       fill="#7a5a6b"
       opacity="1.00"
       d=" M 529.88 489.89 C 534.47 491.49 538.44 494.32 542.33 497.17 C 542.17 495.30 542.01 493.43 541.89 491.57 C 543.86 494.18 545.43 497.08 546.39 500.22 C 544.17 499.59 541.97 498.94 539.83 498.09 C 536.36 495.55 533.05 492.79 529.88 489.89 Z"
       id="path15" />
    <path
       fill="#7a5a6b"
       opacity="1.00"
       d=" M 111.18 548.63 C 111.28 548.59 111.48 548.50 111.58 548.46 C 111.48 548.50 111.28 548.59 111.18 548.63 Z"
       id="path16" />
    <path
       fill="#7a5a6b"
       opacity="1.00"
       d=" M 284.70 807.03 C 285.38 804.18 287.23 800.91 290.71 802.07 C 291.92 804.17 292.29 806.56 291.85 808.95 C 289.26 809.38 286.82 808.43 284.70 807.03 Z"
       id="path17" />
    <path
       fill="#7a5a6b"
       opacity="1.00"
       d=" M 446.85 819.11 C 448.08 818.32 449.33 817.55 450.55 816.73 C 456.55 819.69 462.72 822.42 469.27 823.94 C 473.79 824.95 478.16 826.55 482.13 828.96 C 487.35 832.14 493.44 833.38 498.82 836.24 C 508.10 841.26 517.74 845.60 527.45 849.71 C 536.43 852.89 545.19 856.76 553.34 861.70 C 557.97 864.56 562.76 867.16 567.70 869.45 C 571.62 871.42 576.40 870.44 580.13 872.94 C 580.24 873.43 580.44 874.41 580.54 874.90 C 579.61 875.85 578.69 876.81 577.78 877.78 C 573.76 876.02 570.03 873.70 566.10 871.79 C 548.76 864.22 531.69 856.00 514.25 848.68 C 502.57 845.37 493.00 837.50 481.75 833.19 C 478.05 831.81 474.13 831.06 470.53 829.42 C 466.85 827.76 463.39 825.59 459.55 824.33 C 455.24 822.79 450.35 822.34 446.85 819.11 Z"
       id="path18" />
    <path
       id="path19"
       d="m 491.40088,954.9917 c 1.21328,1.66066 2.33916,3.33031 3.37646,5.0083 h 4.09278 c -2.37043,-1.85361 -4.88476,-3.48855 -7.46924,-5.0083 z" />
    <path
       fill="#7a5a6b"
       opacity="1.00"
       d=" M 454.75 885.24 C 466.53 892.33 477.49 900.72 489.36 907.68 C 497.70 912.46 504.79 919.02 512.83 924.23 C 517.01 926.94 520.96 929.99 524.51 933.49 C 529.53 938.50 535.34 942.65 540.35 947.68 C 544.53 951.64 548.36 955.94 552.44 960.00 L 518.76 960.00 C 514.14 953.15 508.23 947.35 503.23 940.81 C 499.10 935.33 493.55 931.10 489.60 925.48 C 487.13 921.98 484.04 919.02 481.09 915.95 C 473.89 907.83 467.32 898.98 458.62 892.35 C 456.46 890.58 453.64 888.40 454.75 885.24 Z"
       id="path20" />
    <path
       fill="#7a5a6b"
       opacity="1.00"
       d=" M 611.01 900.91 C 612.15 898.84 614.50 900.09 616.17 900.59 C 616.42 901.19 616.93 902.39 617.18 902.99 C 617.26 904.83 617.41 906.73 617.06 908.57 C 615.82 910.32 613.67 911.05 611.88 912.08 C 610.33 908.63 609.64 904.52 611.01 900.91 Z"
       id="path21" />
    <path
       fill="#7a5a6b"
       opacity="1.00"
       d=" M 617.90 935.23 C 620.00 932.98 621.98 930.62 623.80 928.14 C 623.61 935.27 623.97 942.44 623.15 949.56 C 621.65 946.09 621.70 942.31 621.22 938.66 C 618.78 936.03 614.63 936.69 611.48 935.55 C 609.25 935.30 608.56 932.92 607.58 931.29 C 610.64 933.43 614.13 934.97 617.90 935.23 Z"
       id="path22" />
  </g>
  <g
     id="#f8e4d6ff">
    <path
       fill="#f8e4d6"
       opacity="1.00"
       d=" M 655.24 192.03 C 657.52 192.22 660.11 192.29 661.61 194.33 C 666.39 199.59 671.01 205.02 676.27 209.81 C 681.92 219.78 689.61 228.30 697.18 236.81 C 704.62 245.20 710.04 255.12 717.39 263.59 C 722.22 270.76 726.29 278.55 729.04 286.77 C 731.94 297.04 735.36 307.27 736.43 317.94 C 736.74 320.01 735.19 321.61 734.18 323.22 C 729.38 316.69 725.55 309.49 721.93 302.25 C 718.94 293.32 708.38 289.52 699.79 291.81 C 694.85 293.98 693.07 299.59 690.99 304.14 C 687.43 311.88 687.07 320.52 685.48 328.78 C 683.41 339.94 685.12 351.46 688.68 362.13 C 690.47 367.49 697.13 368.36 700.06 372.85 C 702.29 376.43 703.80 380.39 705.87 384.06 C 710.67 393.90 715.14 404.27 723.18 411.99 C 723.80 412.89 724.43 413.79 725.06 414.70 C 725.79 419.89 730.08 423.39 734.45 425.67 C 737.61 427.00 741.89 427.09 744.22 424.18 C 745.26 422.92 746.26 421.63 747.24 420.32 C 748.54 418.40 750.15 416.46 750.27 414.04 C 750.79 404.84 749.64 395.60 750.70 386.43 C 755.33 386.39 758.01 391.11 761.46 393.57 C 764.25 396.72 767.30 400.02 771.89 399.90 C 776.38 402.25 779.86 406.07 784.23 408.64 C 787.74 410.74 791.13 413.05 794.51 415.37 C 804.71 421.91 815.84 426.78 826.58 432.35 C 831.52 434.75 834.15 440.03 834.98 445.25 C 835.99 451.43 834.88 457.70 833.99 463.83 C 832.32 474.42 827.31 484.04 822.64 493.56 C 820.91 497.31 817.87 500.34 816.40 504.22 C 815.56 511.41 818.45 518.36 821.19 524.85 C 824.08 531.07 821.57 538.42 817.49 543.48 C 815.00 546.72 811.26 549.88 811.81 554.40 C 811.74 561.11 816.07 566.66 817.28 573.04 C 816.77 580.92 810.85 586.97 808.45 594.25 C 803.75 607.36 805.78 621.44 805.25 635.05 C 804.91 641.70 808.94 647.32 810.77 653.46 C 812.70 659.26 812.10 665.46 812.85 671.45 C 813.26 675.27 813.88 679.36 812.13 682.98 C 809.80 688.73 804.25 692.04 799.49 695.58 C 792.94 700.50 785.00 702.91 777.36 705.54 C 769.46 707.94 761.73 710.85 753.78 713.06 C 750.75 714.00 747.56 713.87 744.44 713.73 C 751.01 709.99 759.19 709.80 765.10 704.80 C 756.68 703.11 748.27 701.11 740.30 697.87 C 733.13 694.93 725.39 694.07 717.90 692.35 C 712.70 691.22 708.02 688.34 702.71 687.68 C 695.84 686.76 689.06 685.26 682.33 683.64 C 674.61 680.83 666.69 678.60 658.72 676.67 C 651.48 675.66 644.57 673.23 637.45 671.66 C 624.50 668.50 612.37 662.87 599.91 658.27 C 590.31 654.12 580.77 649.83 571.86 644.35 C 563.13 640.16 556.73 632.76 549.97 626.07 C 548.13 624.16 546.58 622.01 544.95 619.93 C 542.08 616.16 538.00 613.49 535.35 609.53 C 531.49 603.89 527.74 598.04 522.42 593.64 C 518.91 590.81 516.13 587.15 512.46 584.54 C 503.26 583.80 494.39 587.31 485.44 588.96 C 474.66 593.06 462.86 592.36 451.69 590.53 C 444.83 588.97 439.64 583.93 434.24 579.77 C 429.27 576.05 424.80 571.74 419.77 568.10 C 416.65 563.34 411.93 560.06 407.86 556.20 C 398.68 548.26 387.93 542.50 377.40 536.60 C 370.13 533.28 363.40 528.86 357.42 523.57 C 352.01 518.51 348.91 511.57 346.17 504.82 C 343.26 497.62 343.68 489.75 342.69 482.19 C 341.56 475.24 344.83 468.60 344.35 461.64 C 347.99 454.44 349.70 446.47 353.39 439.29 C 357.86 428.46 364.21 417.83 374.47 411.60 C 377.74 410.03 381.49 410.10 385.03 409.74 C 390.69 411.44 396.56 412.24 402.24 413.85 C 410.61 417.20 419.45 419.38 427.50 423.53 C 431.48 425.62 435.74 427.16 439.70 429.31 C 443.20 431.19 444.92 434.93 446.97 438.13 C 449.82 442.79 454.00 446.39 457.44 450.59 C 464.78 460.28 472.63 469.61 479.16 479.89 C 481.88 484.23 482.93 489.32 485.12 493.91 C 488.82 501.33 489.78 509.72 493.35 517.20 C 495.27 514.22 496.23 510.78 497.76 507.61 C 499.89 506.12 501.82 508.34 503.34 509.64 C 507.47 513.73 511.47 518.01 516.32 521.27 C 516.90 513.77 517.64 506.17 516.28 498.71 C 515.40 493.82 515.42 488.80 516.31 483.91 C 521.12 485.20 525.36 487.89 529.88 489.89 C 533.05 492.79 536.36 495.55 539.83 498.09 C 542.48 500.13 545.45 503.29 549.05 501.40 C 546.81 494.98 542.72 489.50 539.41 483.63 C 537.00 479.05 534.29 474.65 531.88 470.10 C 529.23 465.28 529.59 459.42 531.46 454.40 C 534.36 446.66 534.83 438.35 536.45 430.32 C 537.14 426.55 538.92 422.94 538.68 419.04 C 538.63 416.87 538.25 414.71 538.50 412.55 C 540.25 409.66 544.56 409.03 547.44 410.51 C 556.00 415.30 562.45 423.59 571.80 426.99 C 571.99 419.28 566.43 412.74 566.79 405.08 C 567.50 399.98 573.44 399.45 577.39 398.19 C 590.08 394.26 603.47 392.62 615.77 387.52 C 615.73 385.73 615.81 383.80 614.61 382.33 C 610.58 376.47 605.21 371.67 601.20 365.81 C 598.84 362.33 599.46 357.75 601.29 354.19 C 605.60 345.13 609.13 335.72 612.32 326.22 C 616.04 317.73 617.32 308.48 619.64 299.57 C 620.14 298.29 620.33 296.40 621.95 296.06 C 625.11 295.09 628.46 294.79 631.49 293.42 C 633.30 292.84 635.40 291.21 637.23 292.62 C 641.30 295.71 641.82 301.26 641.87 305.98 C 641.88 311.83 643.98 317.65 642.53 323.46 C 641.77 328.55 640.24 334.76 644.12 338.98 C 645.61 338.28 647.18 337.46 647.55 335.69 C 649.43 330.02 651.63 324.48 654.12 319.05 C 656.64 311.41 658.27 303.42 658.48 295.36 C 663.33 294.75 668.17 295.50 673.00 295.91 C 677.50 296.22 682.62 296.17 686.02 292.73 C 685.19 289.48 681.84 288.04 678.93 287.16 C 673.16 285.66 667.08 286.09 661.32 284.46 C 660.49 279.29 662.52 274.20 662.19 269.01 C 661.72 262.20 662.87 255.41 662.50 248.61 C 661.71 239.90 663.07 230.98 660.53 222.47 C 658.05 212.49 655.21 202.38 655.24 192.03 M 645.51 369.57 C 645.41 370.89 645.07 372.24 645.39 373.56 C 646.21 375.35 648.34 375.53 649.99 376.09 C 651.90 377.52 653.96 378.82 656.20 379.69 C 657.23 380.72 658.32 381.79 659.78 382.22 C 665.53 384.20 671.53 385.32 677.50 386.42 C 682.85 387.37 687.94 390.79 693.53 389.47 C 697.61 388.70 699.32 382.62 696.19 379.87 C 693.72 377.27 690.87 374.73 687.32 373.81 C 678.75 371.89 669.95 371.41 661.34 369.81 C 656.10 369.04 650.76 369.01 645.51 369.57 M 758.80 413.21 C 757.37 415.59 756.13 418.13 755.67 420.89 C 754.93 427.77 754.82 435.01 757.70 441.45 C 759.66 446.70 764.58 450.84 770.15 451.64 C 775.13 451.66 779.73 449.22 784.01 446.90 C 786.77 445.33 789.63 442.52 789.51 439.18 C 786.22 428.68 777.02 421.64 768.34 415.65 C 765.62 413.52 762.11 413.24 758.80 413.21 M 374.77 429.65 C 371.99 433.80 368.80 438.00 368.10 443.11 C 367.60 444.33 367.24 445.61 366.85 446.88 C 366.33 450.07 368.27 452.86 369.45 455.67 C 371.14 458.99 372.80 462.92 376.31 464.64 C 380.35 465.19 384.18 462.56 386.17 459.18 C 386.80 458.43 387.36 457.64 387.85 456.79 C 388.53 456.19 389.14 455.53 389.67 454.80 C 392.12 449.78 394.17 444.43 393.97 438.75 C 394.76 438.75 396.33 438.75 397.12 438.75 C 397.45 448.16 397.85 457.65 396.42 466.99 C 396.09 470.10 395.66 474.12 398.96 475.80 C 401.91 474.02 404.55 471.54 407.99 470.75 C 412.34 469.63 416.80 469.11 421.19 468.15 C 424.16 461.07 420.99 453.29 416.56 447.61 C 413.34 442.57 408.26 439.02 403.65 435.35 C 402.82 433.92 401.72 432.65 400.23 431.91 C 395.76 429.48 391.37 426.09 386.03 426.23 C 382.15 426.18 377.29 426.16 374.77 429.65 M 427.08 464.97 C 424.07 474.16 424.31 483.94 424.01 493.50 C 424.29 497.87 427.78 501.49 427.40 506.01 C 427.04 512.01 423.37 517.15 419.52 521.52 C 416.61 525.22 410.86 524.98 408.49 529.26 C 412.11 533.68 416.49 537.47 421.10 540.82 C 424.82 543.60 429.60 543.98 434.08 543.80 C 439.71 543.84 444.65 540.72 450.07 539.72 C 455.34 538.51 460.62 540.32 465.89 540.67 C 465.22 536.53 462.71 533.00 461.95 528.90 C 460.99 523.65 459.00 518.68 456.98 513.78 C 456.17 511.81 454.46 510.47 452.93 509.10 C 452.68 508.83 452.19 508.31 451.94 508.04 C 447.24 499.89 436.10 501.16 429.69 495.27 C 426.52 488.85 429.81 481.76 429.67 475.04 C 429.47 471.10 431.04 466.76 428.83 463.17 C 428.21 463.73 427.63 464.33 427.08 464.97 M 789.52 479.53 C 786.27 482.50 783.78 488.09 787.44 491.75 C 792.26 491.20 795.50 485.18 793.01 480.92 C 792.17 479.92 790.87 478.86 789.52 479.53 M 788.55 537.48 C 783.50 541.92 777.12 544.50 772.30 549.24 C 764.55 556.20 753.75 556.46 744.00 557.73 C 741.21 557.60 740.72 560.81 740.75 562.94 C 742.72 563.76 744.79 564.47 746.97 564.41 C 755.80 564.56 764.13 561.20 772.38 558.47 C 779.30 556.16 786.72 555.87 793.95 556.46 C 798.50 556.82 803.18 558.19 807.69 556.75 C 808.04 554.64 808.32 552.52 808.72 550.43 C 810.29 544.36 817.96 541.58 818.34 535.05 C 810.59 534.31 802.81 533.04 795.02 533.82 C 792.47 534.13 790.53 536.02 788.55 537.48 Z"
       id="path23" />
    <path
       fill="#f8e4d6"
       opacity="1.00"
       d=" M 625.23 266.35 C 626.51 262.75 626.99 258.87 628.92 255.51 C 631.90 257.80 633.85 261.22 634.07 265.01 C 634.63 272.76 639.15 279.90 637.76 287.83 C 636.70 288.35 635.55 288.73 634.37 288.50 C 630.42 288.06 626.46 287.79 622.50 287.60 C 620.88 280.46 622.68 273.05 625.23 266.35 Z"
       id="path24" />
    <path
       fill="#f8e4d6"
       opacity="1.00"
       d=" M 577.88 284.08 C 578.97 280.20 577.95 274.95 582.03 272.63 C 587.34 273.62 586.10 279.86 587.27 283.78 C 588.98 289.28 587.40 295.20 589.47 300.60 C 590.49 303.30 590.11 306.19 590.16 309.01 C 591.37 321.47 592.71 333.94 593.81 346.40 C 595.01 349.51 593.54 353.37 590.22 354.35 C 580.88 359.01 570.55 360.65 560.78 364.08 C 558.73 365.02 556.42 363.99 555.66 361.91 C 556.50 357.72 558.62 353.90 559.70 349.77 C 562.81 339.18 565.53 328.47 568.67 317.89 C 571.18 306.47 574.79 295.34 577.88 284.08 Z"
       id="path25" />
    <path
       fill="#f8e4d6"
       opacity="1.00"
       d=" M 709.99 315.78 C 711.27 315.82 712.55 315.87 713.85 315.92 C 719.02 323.48 721.64 332.35 725.45 340.60 C 726.72 343.10 725.99 345.93 725.83 348.59 C 725.15 354.85 726.33 361.11 727.43 367.26 C 728.34 376.06 733.37 383.81 734.28 392.55 C 732.87 395.00 729.95 392.78 728.17 391.98 C 726.48 388.05 724.38 384.33 722.33 380.59 C 719.46 375.54 719.88 369.49 717.89 364.13 C 715.99 358.84 715.15 353.28 714.05 347.80 C 712.07 337.25 708.66 326.63 709.99 315.78 Z"
       id="path26" />
    <path
       fill="#f8e4d6"
       opacity="1.00"
       d=" M 395.13 769.15 C 399.32 767.42 404.34 765.21 408.78 767.29 C 423.96 778.69 435.01 794.39 447.91 808.11 C 449.32 809.90 450.09 812.06 450.33 814.33 C 448.17 814.23 445.96 814.06 444.01 813.05 C 436.46 809.12 428.15 807.08 420.22 804.09 C 411.67 802.06 403.77 798.08 395.29 795.86 C 389.28 794.08 383.30 792.18 377.18 790.78 C 371.48 789.32 365.53 788.48 360.27 785.70 C 360.35 784.45 360.43 783.21 360.52 781.98 C 365.06 780.50 369.58 778.95 373.90 776.93 C 380.73 773.66 388.32 772.48 395.13 769.15 Z"
       id="path27" />
    <path
       fill="#f8e4d6"
       opacity="1.00"
       d=" M 273.48 809.33 C 274.70 807.94 276.40 808.96 277.45 809.97 C 275.67 816.15 271.92 821.51 269.72 827.54 C 268.02 832.29 265.56 836.71 263.29 841.20 C 260.93 845.79 260.06 851.06 257.05 855.33 C 256.21 855.32 254.51 855.28 253.66 855.27 C 253.64 852.86 254.03 850.47 255.20 848.36 C 259.47 840.31 262.44 831.67 266.21 823.40 C 268.45 818.65 269.38 812.93 273.48 809.33 Z"
       id="path28" />
    <path
       fill="#f8e4d6"
       opacity="1.00"
       d=" M 333.98 817.29 C 343.25 815.84 352.67 815.30 362.04 815.71 C 370.67 815.91 378.79 820.56 384.15 827.20 C 377.97 825.70 373.44 820.88 367.57 818.79 C 358.63 817.28 349.48 818.18 340.47 818.57 C 340.12 819.28 339.78 820.01 339.44 820.74 C 343.79 824.44 349.25 826.30 354.46 828.44 C 360.94 831.05 366.92 834.71 373.30 837.56 C 380.84 840.90 387.93 845.17 395.58 848.27 C 400.15 850.10 404.52 852.43 408.39 855.51 C 398.89 852.58 390.42 847.21 381.09 843.83 C 373.71 839.76 365.88 836.63 358.47 832.62 C 351.95 829.07 344.35 828.04 338.09 823.99 C 335.90 822.38 332.65 820.45 333.98 817.29 Z"
       id="path29" />
    <path
       fill="#f8e4d6"
       opacity="1.00"
       d=" M 415.67 851.79 C 420.39 853.75 424.15 857.83 424.65 863.08 C 422.76 862.73 420.89 862.39 419.03 861.94 C 415.57 860.14 412.28 858.05 409.04 855.88 C 412.93 857.36 416.93 858.57 420.86 859.94 C 418.88 857.39 417.20 854.62 415.67 851.79 Z"
       id="path30" />
  </g>
  <g
     id="#a7a4bcff">
    <path
       fill="#a7a4bc"
       opacity="1.00"
       d=" M 699.79 291.81 C 708.38 289.52 718.94 293.32 721.93 302.25 C 718.61 298.75 715.36 294.42 710.31 293.50 C 706.76 292.75 702.90 291.84 699.40 293.20 C 695.87 296.20 693.67 300.42 690.99 304.14 C 693.07 299.59 694.85 293.98 699.79 291.81 Z"
       id="path31" />
    <path
       fill="#a7a4bc"
       opacity="1.00"
       d=" M 708.14 316.37 C 708.98 312.87 713.04 314.28 715.61 314.29 C 721.01 322.16 725.78 330.53 728.43 339.75 C 727.01 348.88 728.49 358.11 727.43 367.26 C 726.33 361.11 725.15 354.85 725.83 348.59 C 725.99 345.93 726.72 343.10 725.45 340.60 C 721.64 332.35 719.02 323.48 713.85 315.92 C 712.55 315.87 711.27 315.82 709.99 315.78 C 708.66 326.63 712.07 337.25 714.05 347.80 C 715.15 353.28 715.99 358.84 717.89 364.13 C 719.88 369.49 719.46 375.54 722.33 380.59 C 724.38 384.33 726.48 388.05 728.17 391.98 C 727.21 391.45 726.27 390.92 725.34 390.39 C 721.64 382.56 717.03 375.02 715.62 366.33 C 714.49 354.32 710.21 342.86 709.10 330.84 C 708.76 326.03 707.28 321.18 708.14 316.37 Z"
       id="path32" />
    <path
       fill="#a7a4bc"
       opacity="1.00"
       d=" M 764.36 340.77 C 766.19 349.96 768.13 359.13 769.81 368.35 C 768.88 365.57 767.70 362.88 766.58 360.18 C 765.89 360.09 764.52 359.90 763.84 359.80 C 763.92 367.81 765.10 375.86 767.40 383.54 C 768.05 383.73 769.36 384.09 770.02 384.28 C 770.39 380.44 770.65 376.58 770.44 372.73 C 771.21 381.77 772.25 390.81 771.89 399.90 C 767.30 400.02 764.25 396.72 761.46 393.57 C 764.20 395.46 767.24 397.99 770.82 396.97 C 771.29 393.68 772.24 389.88 770.25 386.90 C 768.03 385.47 764.34 385.63 763.45 382.71 C 761.90 378.23 761.99 373.42 761.25 368.78 C 760.86 365.64 760.06 362.48 760.42 359.31 C 761.36 356.78 763.48 354.94 764.72 352.57 C 765.15 348.65 764.53 344.69 764.36 340.77 Z"
       id="path33" />
    <path
       fill="#a7a4bc"
       opacity="1.00"
       d=" M 645.51 369.57 C 650.76 369.01 656.10 369.04 661.34 369.81 C 669.95 371.41 678.75 371.89 687.32 373.81 C 690.87 374.73 693.72 377.27 696.19 379.87 C 699.32 382.62 697.61 388.70 693.53 389.47 C 687.94 390.79 682.85 387.37 677.50 386.42 C 671.53 385.32 665.53 384.20 659.78 382.22 C 658.32 381.79 657.23 380.72 656.20 379.69 C 667.04 381.70 677.38 385.74 688.17 387.99 C 690.86 388.65 693.56 387.86 696.02 386.76 C 697.54 380.90 691.96 376.54 687.02 374.91 C 678.01 372.25 668.48 372.45 659.32 370.58 C 654.75 369.65 649.77 369.14 645.62 371.71 C 647.02 373.21 648.45 374.71 649.99 376.09 C 648.34 375.53 646.21 375.35 645.39 373.56 C 645.07 372.24 645.41 370.89 645.51 369.57 Z"
       id="path34" />
    <path
       fill="#a7a4bc"
       opacity="1.00"
       d=" M 758.80 413.21 C 762.11 413.24 765.62 413.52 768.34 415.65 C 777.02 421.64 786.22 428.68 789.51 439.18 C 789.63 442.52 786.77 445.33 784.01 446.90 C 779.73 449.22 775.13 451.66 770.15 451.64 C 764.58 450.84 759.66 446.70 757.70 441.45 C 754.82 435.01 754.93 427.77 755.67 420.89 C 755.15 426.61 755.88 432.43 758.03 437.77 C 759.56 441.62 760.89 446.32 765.06 448.10 C 772.94 451.80 782.42 447.87 787.52 441.37 C 788.73 440.04 787.63 438.41 787.13 437.05 C 783.89 430.01 778.10 424.59 772.26 419.70 C 768.40 416.42 763.69 414.38 758.80 413.21 Z"
       id="path35" />
    <path
       fill="#a7a4bc"
       opacity="1.00"
       d=" M 374.77 429.65 C 377.29 426.16 382.15 426.18 386.03 426.23 C 391.37 426.09 395.76 429.48 400.23 431.91 C 401.72 432.65 402.82 433.92 403.65 435.35 C 396.93 432.14 390.91 426.27 383.01 426.57 C 378.93 426.55 375.62 429.44 373.70 432.82 C 371.65 436.14 369.82 439.60 368.10 443.11 C 368.80 438.00 371.99 433.80 374.77 429.65 Z"
       id="path36" />
    <path
       fill="#a7a4bc"
       opacity="1.00"
       d=" M 393.94 436.59 C 395.01 436.57 396.08 436.54 397.16 436.52 C 399.09 447.86 397.20 459.39 397.09 470.79 C 397.34 472.29 399.08 473.63 400.53 472.67 C 404.59 470.91 408.57 468.66 413.13 468.60 C 415.69 468.04 419.91 468.84 420.66 465.49 C 421.72 459.26 419.58 452.99 416.56 447.61 C 420.99 453.29 424.16 461.07 421.19 468.15 C 416.80 469.11 412.34 469.63 407.99 470.75 C 404.55 471.54 401.91 474.02 398.96 475.80 C 395.66 474.12 396.09 470.10 396.42 466.99 C 397.85 457.65 397.45 448.16 397.12 438.75 C 396.33 438.75 394.76 438.75 393.97 438.75 C 394.17 444.43 392.12 449.78 389.67 454.80 C 389.14 455.53 388.53 456.19 387.85 456.79 C 391.14 450.48 392.51 443.49 393.94 436.59 Z"
       id="path37" />
    <path
       fill="#a7a4bc"
       opacity="1.00"
       d=" M 366.85 446.88 C 370.00 452.39 371.71 459.34 377.22 463.05 C 380.55 463.60 383.50 460.88 386.17 459.18 C 384.18 462.56 380.35 465.19 376.31 464.64 C 372.80 462.92 371.14 458.99 369.45 455.67 C 368.27 452.86 366.33 450.07 366.85 446.88 Z"
       id="path38" />
    <path
       fill="#a7a4bc"
       opacity="1.00"
       d=" M 427.08 464.97 C 427.63 464.33 428.21 463.73 428.83 463.17 C 431.04 466.76 429.47 471.10 429.67 475.04 C 429.81 481.76 426.52 488.85 429.69 495.27 C 436.10 501.16 447.24 499.89 451.94 508.04 C 444.69 503.70 437.02 498.04 428.13 498.89 C 428.58 502.78 430.33 506.88 428.64 510.72 C 426.02 517.38 421.23 523.56 414.47 526.36 C 412.90 527.30 409.81 528.19 410.93 530.63 C 415.19 534.93 419.75 539.26 425.21 541.97 C 431.69 545.07 438.59 541.66 445.01 540.19 C 450.50 538.39 456.31 538.73 461.95 537.91 C 462.83 533.29 460.92 528.84 459.76 524.45 C 458.26 519.02 455.93 513.85 452.93 509.10 C 454.46 510.47 456.17 511.81 456.98 513.78 C 459.00 518.68 460.99 523.65 461.95 528.90 C 462.71 533.00 465.22 536.53 465.89 540.67 C 460.62 540.32 455.34 538.51 450.07 539.72 C 444.65 540.72 439.71 543.84 434.08 543.80 C 429.60 543.98 424.82 543.60 421.10 540.82 C 416.49 537.47 412.11 533.68 408.49 529.26 C 410.86 524.98 416.61 525.22 419.52 521.52 C 423.37 517.15 427.04 512.01 427.40 506.01 C 427.78 501.49 424.29 497.87 424.01 493.50 C 424.31 483.94 424.07 474.16 427.08 464.97 Z"
       id="path39" />
    <path
       fill="#a7a4bc"
       opacity="1.00"
       d=" M 789.52 479.53 C 790.87 478.86 792.17 479.92 793.01 480.92 C 795.50 485.18 792.26 491.20 787.44 491.75 C 783.78 488.09 786.27 482.50 789.52 479.53 Z"
       id="path40" />
    <path
       fill="#a7a4bc"
       opacity="1.00"
       d=" M 419.77 568.10 C 424.80 571.74 429.27 576.05 434.24 579.77 C 439.64 583.93 444.83 588.97 451.69 590.53 C 462.86 592.36 474.66 593.06 485.44 588.96 C 494.39 587.31 503.26 583.80 512.46 584.54 C 516.13 587.15 518.91 590.81 522.42 593.64 C 527.74 598.04 531.49 603.89 535.35 609.53 C 538.00 613.49 542.08 616.16 544.95 619.93 C 546.58 622.01 548.13 624.16 549.97 626.07 C 556.73 632.76 563.13 640.16 571.86 644.35 C 580.77 649.83 590.31 654.12 599.91 658.27 C 612.37 662.87 624.50 668.50 637.45 671.66 C 644.57 673.23 651.48 675.66 658.72 676.67 C 666.69 678.60 674.61 680.83 682.33 683.64 C 689.06 685.26 695.84 686.76 702.71 687.68 C 708.02 688.34 712.70 691.22 717.90 692.35 C 725.39 694.07 733.13 694.93 740.30 697.87 C 748.27 701.11 756.68 703.11 765.10 704.80 C 759.19 709.80 751.01 709.99 744.44 713.73 C 739.75 714.07 735.12 714.99 730.68 716.53 C 723.66 718.97 716.22 719.83 709.17 722.15 C 701.33 724.64 693.31 726.47 685.32 728.39 C 705.32 720.09 726.96 717.09 747.56 710.70 C 750.59 709.64 753.68 708.14 755.34 705.24 C 749.58 701.70 742.93 700.17 736.49 698.36 C 731.02 696.89 725.76 694.67 720.18 693.57 C 709.70 691.53 699.59 687.71 688.88 686.92 C 682.49 686.78 677.40 682.30 671.18 681.48 C 667.81 680.91 664.57 679.83 661.43 678.52 C 654.09 675.47 645.77 676.53 638.45 673.38 C 631.66 670.38 624.23 669.27 617.41 666.38 C 601.17 659.18 583.97 653.81 569.06 643.92 C 559.69 639.09 552.28 631.35 546.04 623.00 C 542.55 618.17 537.41 614.85 534.14 609.85 C 529.00 602.45 523.07 595.61 516.45 589.49 C 514.14 587.41 511.38 585.27 508.09 585.56 C 499.52 585.81 491.92 590.54 483.42 591.20 C 476.77 591.75 470.25 593.97 463.53 593.32 C 457.95 592.86 452.12 592.61 447.09 589.86 C 439.41 586.43 433.94 579.77 426.81 575.47 C 423.89 573.63 421.58 571.02 419.77 568.10 Z"
       id="path41" />
    <path
       fill="#a7a4bc"
       opacity="1"
       d="m 287.26,798.23 c 3.37,-7.05 6.01,-14.6 11.28,-20.54 -1.02,2.41 -1.49,5.04 -0.8,7.61 3.19,-1.52 6.03,-3.85 9.46,-4.81 4.21,-0.11 7.95,2.24 11.8,3.62 4.6,1.94 9.64,2.08 14.53,2.69 6.35,0.73 12.21,3.65 18.58,4.29 6.97,0.69 13.66,2.83 20.39,4.63 1.96,0.65 4.44,1.23 5.22,3.42 -1.01,4.74 -4.61,8.39 -5.88,13.04 -0.79,2.21 1.05,4.12 2.67,5.36 3.25,2.4 6.91,4.25 9.89,7.03 5.07,4.72 10.97,8.4 16.25,12.86 5.93,5.11 13.12,8.64 18.36,14.56 4.44,4.96 10.27,9.13 12.75,15.51 -4.93,0.15 -8.85,-3 -12.73,-5.56 1.86,0.45 3.73,0.79 5.62,1.14 -0.5,-5.25 -4.26,-9.33 -8.98,-11.29 -10.18,-8.6 -20.52,-17.07 -31.52,-24.59 -5.36,-6.64 -13.48,-11.29 -22.11,-11.49 -9.37,-0.41 -18.79,0.13 -28.06,1.58 -1.33,3.16 1.92,5.09 4.11,6.7 6.26,4.05 13.86,5.08 20.38,8.63 7.41,4.01 15.24,7.14 22.62,11.21 -5.07,-1.68 -10.15,-3.35 -15.32,-4.66 -0.31,0.64 -0.61,1.28 -0.9,1.94 9.91,5.99 19.85,11.96 30.4,16.77 7.71,4.26 15.68,8.07 23.13,12.78 7.27,4.42 15.74,6.96 22.05,12.88 3.92,3.75 8.08,7.24 11.85,11.14 2.76,3.1 7.39,3.7 9.88,7.12 6.38,8.5 13.27,16.64 21.02,23.93 4.91,6.06 10.41,11.59 15.48,17.51 4.22,6.25 10.01,11.14 14.98,16.76 h -14.79 c -4.77,-3.73 -10.12,-6.58 -15.46,-9.37 -237.94369,-114.62404 -127.70447,-23.79374 -235.67,-89.27 -1.5,-7.1 2.57,-13.58 4.69,-20.07 4.04,-11.85 8.17,-23.97 16.03,-33.9 5.13,-5.14 14.81,-2.58 18.8,-9.16 m -2.56,8.8 c 2.12,1.4 4.56,2.35 7.15,1.92 0.44,-2.39 0.07,-4.78 -1.14,-6.88 -3.48,-1.16 -5.33,2.11 -6.01,4.96 m -11.22,2.3 c -4.1,3.6 -5.03,9.32 -7.27,14.07 -3.77,8.27 -6.74,16.91 -11.01,24.96 -1.17,2.11 -1.56,4.5 -1.54,6.91 0.85,0.01 2.55,0.05 3.39,0.06 3.01,-4.27 3.88,-9.54 6.24,-14.13 2.27,-4.49 4.73,-8.91 6.43,-13.66 2.2,-6.03 5.95,-11.39 7.73,-17.57 -1.05,-1.01 -2.75,-2.03 -3.97,-0.64 m 26.04,0.72 c 0.44,4 4.69,5.51 7.94,6.69 6.56,2.06 12.72,6.53 19.91,5.48 -0.02,-2.74 -0.86,-5.83 -3.53,-7.1 -3.86,-1.85 -7.82,-3.48 -11.63,-5.41 -3.94,-1.44 -9.07,-2.15 -12.69,0.34 z"
       id="path42"
       sodipodi:nodetypes="ccccccccccccccccccccccccccccccccccccccccccccccccccccccccccc" />
    <path
       fill="#a7a4bc"
       opacity="1.00"
       d=" M 354.68 784.20 C 356.61 783.43 358.55 782.65 360.52 781.98 C 360.43 783.21 360.35 784.45 360.27 785.70 C 365.53 788.48 371.48 789.32 377.18 790.78 C 383.30 792.18 389.28 794.08 395.29 795.86 C 403.77 798.08 411.67 802.06 420.22 804.09 C 428.15 807.08 436.46 809.12 444.01 813.05 C 445.96 814.06 448.17 814.23 450.33 814.33 C 450.09 812.06 449.32 809.90 447.91 808.11 C 450.21 810.12 451.87 812.88 450.78 816.01 C 443.12 815.64 436.74 811.00 429.49 809.11 C 415.68 803.92 401.33 800.38 387.42 795.46 C 376.71 791.13 364.63 790.37 354.68 784.20 Z"
       id="path43" />
  </g>
  <g
     id="#9a83a4ff">
    <path
       fill="#9a83a4"
       opacity="1.00"
       d=" M 699.40 293.20 C 702.90 291.84 706.76 292.75 710.31 293.50 C 706.90 294.06 703.44 294.70 700.40 296.42 C 701.87 299.06 703.67 301.76 703.49 304.94 C 703.54 311.95 701.97 318.97 703.34 325.95 C 703.79 334.71 706.47 343.21 706.25 352.00 C 706.18 357.77 707.82 363.38 708.08 369.12 C 707.72 374.15 705.61 378.95 705.87 384.06 C 703.80 380.39 702.29 376.43 700.06 372.85 C 697.13 368.36 690.47 367.49 688.68 362.13 C 685.12 351.46 683.41 339.94 685.48 328.78 C 687.07 320.52 687.43 311.88 690.99 304.14 C 693.67 300.42 695.87 296.20 699.40 293.20 Z"
       id="path45" />
    <path
       fill="#9a83a4"
       opacity="1.00"
       d=" M 760.00 345.91 C 763.92 341.78 758.42 336.03 761.79 331.51 C 762.83 334.54 763.83 337.60 764.36 340.77 C 764.53 344.69 765.15 348.65 764.72 352.57 C 763.48 354.94 761.36 356.78 760.42 359.31 C 760.06 362.48 760.86 365.64 761.25 368.78 C 761.99 373.42 761.90 378.23 763.45 382.71 C 764.34 385.63 768.03 385.47 770.25 386.90 C 772.24 389.88 771.29 393.68 770.82 396.97 C 767.24 397.99 764.20 395.46 761.46 393.57 C 758.01 391.11 755.33 386.39 750.70 386.43 C 749.64 395.60 750.79 404.84 750.27 414.04 C 750.15 416.46 748.54 418.40 747.24 420.32 C 747.94 408.53 747.92 396.69 747.23 384.89 C 746.82 382.29 749.61 380.46 751.95 380.67 C 754.84 381.70 757.53 383.22 760.44 384.22 C 759.75 378.88 758.69 373.60 757.79 368.29 C 758.10 360.82 754.47 353.94 754.65 346.51 C 756.41 346.34 758.32 346.60 760.00 345.91 Z"
       id="path46" />
    <path
       fill="#9a83a4"
       opacity="1.00"
       d=" M 728.43 339.75 C 730.64 348.50 728.32 357.62 729.68 366.49 C 730.34 374.45 734.49 381.48 736.14 389.18 C 736.84 391.91 736.32 395.96 732.89 396.37 C 729.01 396.95 726.33 393.75 725.34 390.39 C 726.27 390.92 727.21 391.45 728.17 391.98 C 729.95 392.78 732.87 395.00 734.28 392.55 C 733.37 383.81 728.34 376.06 727.43 367.26 C 728.49 358.11 727.01 348.88 728.43 339.75 Z"
       id="path47" />
    <path
       fill="#9a83a4"
       opacity="1.00"
       d=" M 763.84 359.80 C 764.52 359.90 765.89 360.09 766.58 360.18 C 767.70 362.88 768.88 365.57 769.81 368.35 C 770.08 369.80 770.30 371.26 770.44 372.73 C 770.65 376.58 770.39 380.44 770.02 384.28 C 769.36 384.09 768.05 383.73 767.40 383.54 C 765.10 375.86 763.92 367.81 763.84 359.80 Z"
       id="path48" />
    <path
       fill="#9a83a4"
       opacity="1.00"
       d=" M 371.05 409.98 C 375.07 406.65 380.56 407.70 385.35 407.89 C 385.27 408.35 385.11 409.28 385.03 409.74 C 381.49 410.10 377.74 410.03 374.47 411.60 C 364.21 417.83 357.86 428.46 353.39 439.29 C 349.70 446.47 347.99 454.44 344.35 461.64 C 343.91 461.33 343.03 460.73 342.59 460.42 C 344.88 450.14 349.77 440.74 354.12 431.23 C 357.87 422.88 364.01 415.75 371.05 409.98 Z"
       id="path49" />
    <path
       fill="#9a83a4"
       opacity="1.00"
       d=" M 725.06 414.70 C 727.81 417.32 730.23 420.35 733.37 422.54 C 736.70 424.21 740.60 423.82 744.22 424.18 C 741.89 427.09 737.61 427.00 734.45 425.67 C 730.08 423.39 725.79 419.89 725.06 414.70 Z"
       id="path50" />
    <path
       fill="#9a83a4"
       opacity="1.00"
       d=" M 788.55 537.48 C 790.53 536.02 792.47 534.13 795.02 533.82 C 802.81 533.04 810.59 534.31 818.34 535.05 C 817.96 541.58 810.29 544.36 808.72 550.43 C 808.32 552.52 808.04 554.64 807.69 556.75 C 803.18 558.19 798.50 556.82 793.95 556.46 C 786.72 555.87 779.30 556.16 772.38 558.47 C 764.13 561.20 755.80 564.56 746.97 564.41 C 744.79 564.47 742.72 563.76 740.75 562.94 C 740.72 560.81 741.21 557.60 744.00 557.73 C 753.75 556.46 764.55 556.20 772.30 549.24 C 777.12 544.50 783.50 541.92 788.55 537.48 M 783.37 544.33 C 777.52 547.87 771.78 551.65 766.57 556.09 C 767.05 556.44 768.01 557.13 768.49 557.48 C 776.16 555.22 784.19 553.89 792.20 554.52 C 795.77 554.71 799.34 555.39 802.93 555.10 C 805.48 554.49 805.80 551.53 806.74 549.53 C 808.09 545.19 812.07 542.55 814.51 538.89 C 810.57 534.76 804.19 535.25 798.95 535.04 C 792.29 534.92 788.41 541.04 783.37 544.33 Z"
       id="path51" />
    <path
       fill="#9a83a4"
       opacity="1.00"
       d=" M 308.94 774.59 C 312.00 774.41 314.23 772.12 316.19 770.03 C 315.44 772.83 314.08 775.62 314.25 778.58 C 315.69 782.04 320.41 780.87 323.36 782.11 C 330.44 784.48 337.92 784.91 345.25 786.05 C 348.52 786.61 351.67 785.31 354.68 784.20 C 364.63 790.37 376.71 791.13 387.42 795.46 C 401.33 800.38 415.68 803.92 429.49 809.11 C 436.74 811.00 443.12 815.64 450.78 816.01 L 450.55 816.73 C 449.33 817.55 448.08 818.32 446.85 819.11 C 450.35 822.34 455.24 822.79 459.55 824.33 C 463.39 825.59 466.85 827.76 470.53 829.42 C 474.13 831.06 478.05 831.81 481.75 833.19 C 493.00 837.50 502.57 845.37 514.25 848.68 C 531.69 856.00 548.76 864.22 566.10 871.79 C 570.03 873.70 573.76 876.02 577.78 877.78 C 578.69 876.81 579.61 875.85 580.54 874.90 C 585.50 876.21 589.99 878.75 593.90 882.05 C 601.47 887.95 612.74 890.60 616.17 900.59 C 614.50 900.09 612.15 898.84 611.01 900.91 C 609.64 904.52 610.33 908.63 611.88 912.08 C 613.67 911.05 615.82 910.32 617.06 908.57 C 617.41 906.73 617.26 904.83 617.18 902.99 C 620.49 906.38 625.25 908.24 627.91 912.25 C 629.82 917.27 628.47 922.78 628.10 927.97 C 626.55 938.51 623.88 950.14 629.45 960.00 L 626.25 960.00 C 624.81 956.65 623.97 953.09 623.15 949.56 C 623.97 942.44 623.61 935.27 623.80 928.14 C 621.98 930.62 620.00 932.98 617.90 935.23 C 614.13 934.97 610.64 933.43 607.58 931.29 C 606.97 930.13 606.41 928.97 605.85 927.83 C 601.10 938.12 598.86 949.34 595.10 960.00 L 552.44 960.00 C 548.36 955.94 544.53 951.64 540.35 947.68 C 535.34 942.65 529.53 938.50 524.51 933.49 C 520.96 929.99 517.01 926.94 512.83 924.23 C 504.79 919.02 497.70 912.46 489.36 907.68 C 477.49 900.72 466.53 892.33 454.75 885.24 C 453.64 888.40 456.46 890.58 458.62 892.35 C 467.32 898.98 473.89 907.83 481.09 915.95 C 484.04 919.02 487.13 921.98 489.60 925.48 C 493.55 931.10 499.10 935.33 503.23 940.81 C 508.23 947.35 514.14 953.15 518.76 960.00 L 513.66 960.00 C 508.69 954.38 502.90 949.49 498.68 943.24 C 493.61 937.32 488.11 931.79 483.20 925.73 C 475.45 918.44 468.56 910.30 462.18 901.80 C 459.69 898.38 455.06 897.78 452.30 894.68 C 448.53 890.78 444.37 887.29 440.45 883.54 C 434.14 877.62 425.67 875.08 418.40 870.66 C 410.95 865.95 402.98 862.14 395.27 857.88 C 384.72 853.07 374.78 847.10 364.87 841.11 C 365.16 840.45 365.46 839.81 365.77 839.17 C 370.94 840.48 376.02 842.15 381.09 843.83 C 390.42 847.21 398.89 852.58 408.39 855.51 L 409.04 855.88 C 412.28 858.05 415.57 860.14 419.03 861.94 C 422.91 864.50 426.83 867.65 431.76 867.50 C 429.28 861.12 423.45 856.95 419.01 851.99 C 413.77 846.07 406.58 842.54 400.65 837.43 C 395.37 832.97 389.47 829.29 384.40 824.57 C 381.42 821.79 377.76 819.94 374.51 817.54 C 372.89 816.30 371.05 814.39 371.84 812.18 C 373.11 807.53 376.71 803.88 377.72 799.14 C 376.94 796.95 374.46 796.37 372.50 795.72 C 365.77 793.92 359.08 791.78 352.11 791.09 C 345.74 790.45 339.88 787.53 333.53 786.80 C 328.64 786.19 323.60 786.05 319.00 784.11 C 315.15 782.73 311.41 780.38 307.20 780.49 C 303.77 781.45 300.93 783.78 297.74 785.30 C 297.05 782.73 297.52 780.10 298.54 777.69 C 301.12 774.70 305.44 775.31 308.94 774.59 Z"
       id="path52" />
    <path
       fill="#9a83a4"
       opacity="1.00"
       d=" M 299.52 810.05 C 303.14 807.56 308.27 808.27 312.21 809.71 C 316.02 811.64 319.98 813.27 323.84 815.12 C 326.51 816.39 327.35 819.48 327.37 822.22 C 320.18 823.27 314.02 818.80 307.46 816.74 C 304.21 815.56 299.96 814.05 299.52 810.05 Z"
       id="path53" />
  </g>
  <g
     id="#cc7957ff">
    <path
       fill="#cc7957"
       opacity="1.00"
       d=" M 755.67 420.89 C 756.13 418.13 757.37 415.59 758.80 413.21 C 763.69 414.38 768.40 416.42 772.26 419.70 C 778.10 424.59 783.89 430.01 787.13 437.05 C 787.63 438.41 788.73 440.04 787.52 441.37 C 782.42 447.87 772.94 451.80 765.06 448.10 C 760.89 446.32 759.56 441.62 758.03 437.77 C 755.88 432.43 755.15 426.61 755.67 420.89 Z"
       id="path57" />
    <path
       fill="#cc7957"
       opacity="1.00"
       d=" M 373.70 432.82 C 375.62 429.44 378.93 426.55 383.01 426.57 C 390.91 426.27 396.93 432.14 403.65 435.35 C 408.26 439.02 413.34 442.57 416.56 447.61 C 419.58 452.99 421.72 459.26 420.66 465.49 C 419.91 468.84 415.69 468.04 413.13 468.60 C 408.57 468.66 404.59 470.91 400.53 472.67 C 399.08 473.63 397.34 472.29 397.09 470.79 C 397.20 459.39 399.09 447.86 397.16 436.52 C 396.08 436.54 395.01 436.57 393.94 436.59 C 392.51 443.49 391.14 450.48 387.85 456.79 C 387.36 457.64 386.80 458.43 386.17 459.18 C 383.50 460.88 380.55 463.60 377.22 463.05 C 371.71 459.34 370.00 452.39 366.85 446.88 C 367.24 445.61 367.60 444.33 368.10 443.11 C 369.82 439.60 371.65 436.14 373.70 432.82 Z"
       id="path58" />
    <path
       fill="#cc7957"
       opacity="1.00"
       d=" M 428.13 498.89 C 437.02 498.04 444.69 503.70 451.94 508.04 C 452.19 508.31 452.68 508.83 452.93 509.10 C 455.93 513.85 458.26 519.02 459.76 524.45 C 460.92 528.84 462.83 533.29 461.95 537.91 C 456.31 538.73 450.50 538.39 445.01 540.19 C 438.59 541.66 431.69 545.07 425.21 541.97 C 419.75 539.26 415.19 534.93 410.93 530.63 C 409.81 528.19 412.90 527.30 414.47 526.36 C 421.23 523.56 426.02 517.38 428.64 510.72 C 430.33 506.88 428.58 502.78 428.13 498.89 Z"
       id="path59" />
    <path
       fill="#cc7957"
       opacity="1.00"
       d=" M 783.37 544.33 C 788.41 541.04 792.29 534.92 798.95 535.04 C 804.19 535.25 810.57 534.76 814.51 538.89 C 812.07 542.55 808.09 545.19 806.74 549.53 C 805.80 551.53 805.48 554.49 802.93 555.10 C 799.34 555.39 795.77 554.71 792.20 554.52 C 784.19 553.89 776.16 555.22 768.49 557.48 C 768.01 557.13 767.05 556.44 766.57 556.09 C 771.78 551.65 777.52 547.87 783.37 544.33 Z"
       id="path60" />
    <path
       fill="#cc7957"
       opacity="1.00"
       d=" M 419.67 584.80 C 421.13 581.16 423.36 577.53 426.81 575.47 C 433.94 579.77 439.41 586.43 447.09 589.86 C 452.12 592.61 457.95 592.86 463.53 593.32 C 470.25 593.97 476.77 591.75 483.42 591.20 C 491.92 590.54 499.52 585.81 508.09 585.56 C 511.38 585.27 514.14 587.41 516.45 589.49 C 523.07 595.61 529.00 602.45 534.14 609.85 C 537.41 614.85 542.55 618.17 546.04 623.00 C 552.28 631.35 559.69 639.09 569.06 643.92 C 583.97 653.81 601.17 659.18 617.41 666.38 C 624.23 669.27 631.66 670.38 638.45 673.38 C 645.77 676.53 654.09 675.47 661.43 678.52 C 664.57 679.83 667.81 680.91 671.18 681.48 C 677.40 682.30 682.49 686.78 688.88 686.92 C 699.59 687.71 709.70 691.53 720.18 693.57 C 725.76 694.67 731.02 696.89 736.49 698.36 C 742.93 700.17 749.58 701.70 755.34 705.24 C 753.68 708.14 750.59 709.64 747.56 710.70 C 726.96 717.09 705.32 720.09 685.32 728.39 C 680.99 730.41 676.43 731.83 671.78 732.90 C 665.33 734.38 659.42 737.47 653.87 740.98 C 648.93 744.01 645.92 749.15 643.07 754.02 C 640.14 759.02 640.27 764.99 638.59 770.41 C 636.83 776.17 635.19 782.02 632.47 787.42 C 629.19 794.16 624.35 799.95 620.14 806.11 C 614.90 812.81 608.87 818.84 603.24 825.20 C 598.19 831.06 594.50 837.89 590.47 844.45 C 587.94 848.52 586.58 853.15 584.85 857.60 C 584.32 857.39 583.26 856.96 582.73 856.75 C 582.39 860.16 583.00 863.94 581.00 866.95 C 579.79 868.70 580.09 870.91 580.13 872.94 C 576.40 870.44 571.62 871.42 567.70 869.45 C 562.76 867.16 557.97 864.56 553.34 861.70 C 545.19 856.76 536.43 852.89 527.45 849.71 C 517.74 845.60 508.10 841.26 498.82 836.24 C 493.44 833.38 487.35 832.14 482.13 828.96 C 478.16 826.55 473.79 824.95 469.27 823.94 C 462.72 822.42 456.55 819.69 450.55 816.73 L 450.78 816.01 C 451.87 812.88 450.21 810.12 447.91 808.11 C 435.01 794.39 423.96 778.69 408.78 767.29 C 404.34 765.21 399.32 767.42 395.13 769.15 C 388.32 772.48 380.73 773.66 373.90 776.93 C 369.58 778.95 365.06 780.50 360.52 781.98 C 358.55 782.65 356.61 783.43 354.68 784.20 C 351.67 785.31 348.52 786.61 345.25 786.05 C 337.92 784.91 330.44 784.48 323.36 782.11 C 320.41 780.87 315.69 782.04 314.25 778.58 C 314.08 775.62 315.44 772.83 316.19 770.03 C 319.24 759.48 321.86 748.65 322.43 737.65 C 323.35 737.15 324.26 736.62 325.17 736.11 C 325.70 733.04 325.93 729.90 326.79 726.90 C 328.23 723.00 331.13 719.89 333.52 716.57 C 340.87 706.48 347.69 696.00 354.52 685.56 C 356.49 681.88 362.10 683.69 362.63 687.49 C 364.56 696.55 364.96 705.87 365.58 715.10 C 367.38 714.47 368.43 712.90 368.95 711.14 C 373.62 697.60 377.59 683.82 382.05 670.21 C 383.64 665.58 383.75 660.48 386.02 656.10 C 387.81 653.01 393.12 650.93 395.51 654.47 C 398.38 657.99 400.65 661.97 403.54 665.48 C 407.27 670.41 411.98 674.50 417.02 678.05 C 418.07 678.79 419.33 679.13 420.56 679.52 C 420.37 673.59 416.23 668.92 414.43 663.48 C 412.37 657.13 409.50 650.82 409.51 644.02 C 409.33 634.37 411.46 624.89 413.27 615.48 C 415.80 605.33 417.04 594.92 419.67 584.80 Z"
       id="path61" />
  </g>
</svg>
